<svg width="163" height="98" fill="none" xmlns="http://www.w3.org/2000/svg"><path d="M2.346 11.329c13.69-12.37 33.258-13.926 45.045 2.639 1.833 2.576 3.702 7.466 1.26 10.257-2.853 3.26-8.797 6.918-9.837 1.14-1.784-9.91 3.591-14.561 13.736-15.056 21.964-1.071 41.652 15.633 54.822 31.73 2.548 3.114 7.027 14.728 1.38 17.395-8.47 3.999-18.901-4.76-16.075-13.496 5.38-16.63 32.197-2.824 40.067 3.179 8.238 6.283 17.688 14.57 20.754 24.832 2.13 7.133 3.938 14.294 5.398 21.593M160 94.44c.066-3.821.363-7.63.636-11.44m-.972 12.602c-3.284-.928-6.082-2.572-8.898-4.45" stroke="#282828" stroke-width="3" stroke-linecap="round"/></svg>