<svg width="150" height="93" fill="none" xmlns="http://www.w3.org/2000/svg"><path d="M148.032 12.034c-8.523-10.18-14.037-12.931-25.214-5.79-6.001 3.834-37.206 17.744-23.602 26.9 2.987 2.011 7.27 4.244 10.848 4.984 6.652 1.377-.43-11.267-1.686-12.607-8.78-9.366-21.985-8.632-28.366 1.833-1.728 2.834-19.44 32.177-15.1 32.177 2.534 0 .976-5.583.44-6.596-3.204-6.066-12.316-10.864-18.25-13.634-14.787-6.9-25.748 4.811-33.058 16.859C8.952 64.55 2.702 80.06 9.5 88.557m1.84.898c-.064-3.821.104-7.638.247-11.455m-.544 12.627C7.73 89.812 4.877 88.263 2 86.482" stroke="#282828" stroke-width="3" stroke-linecap="round"/></svg>