<svg width="86" height="68" fill="none" xmlns="http://www.w3.org/2000/svg"><path d="M18.964 67.26c-3.877 0-7.248-1.011-10.114-3.034-2.866-2.192-5.057-5.142-6.574-8.85C.759 51.667 0 47.453 0 42.733 0 37 .927 31.523 2.781 26.297 4.804 20.903 7.84 15.93 11.884 11.38 15.93 6.827 21.156 3.034 27.561 0l10.62 9.861c-4.551 1.518-8.597 3.625-12.137 6.322-3.371 2.697-6.153 5.731-8.344 9.103-2.023 3.371-3.456 6.827-4.299 10.367l1.012.506c.674-.506 1.517-.928 2.528-1.265 1.012-.337 2.529-.505 4.552-.505 2.023 0 4.13.59 6.321 1.77 2.192 1.18 3.962 2.95 5.31 5.31 1.517 2.191 2.276 5.141 2.276 8.85 0 3.034-.759 5.815-2.276 8.344-1.348 2.528-3.287 4.636-5.815 6.321-2.529 1.517-5.31 2.276-8.345 2.276zm47.537 0c-3.877 0-7.248-1.011-10.114-3.034-2.866-2.192-5.057-5.142-6.574-8.85-1.517-3.709-2.276-7.923-2.276-12.643 0-5.732.927-11.21 2.782-16.436 2.022-5.394 5.057-10.367 9.102-14.918C63.467 6.827 68.693 3.034 75.1 0l10.62 9.861c-4.552 1.518-8.598 3.625-12.138 6.322-3.371 2.697-6.152 5.731-8.344 9.103-2.023 3.371-3.456 6.827-4.298 10.367l1.011.506c.674-.506 1.517-.928 2.529-1.265 1.011-.337 2.528-.505 4.551-.505s4.13.59 6.321 1.77c2.192 1.18 3.962 2.95 5.31 5.31 1.518 2.191 2.276 5.141 2.276 8.85 0 3.034-.758 5.815-2.276 8.344-1.348 2.528-3.287 4.636-5.815 6.321-2.529 1.517-5.31 2.276-8.345 2.276z" fill="#F45D05"/></svg>