<svg width="149" height="33" fill="none" xmlns="http://www.w3.org/2000/svg"><path d="M0 20.73C0 9.282 9.281 0 20.73 0h4.308A2.962 2.962 0 0128 2.962v22.076A2.961 2.961 0 0125.038 28H2.962A2.962 2.962 0 010 25.038v-4.307z" fill="#F45D05"/><path d="M6.5 25.73C6.5 14.559 15.558 5.5 26.73 5.5h4.308A2.462 2.462 0 0133.5 7.962v22.076a2.462 2.462 0 01-2.462 2.462H8.962A2.462 2.462 0 016.5 30.038v-4.307z" stroke="#F45D05"/><g clip-path="url(#clip0_11_309)"><path fill-rule="evenodd" clip-rule="evenodd" d="M31.038 6h-4.307C15.834 6 7 14.834 7 25.73v4.308C7 31.122 7.878 32 8.962 32h22.076A1.962 1.962 0 0033 30.038V7.962A1.962 1.962 0 0031.038 6zm-4.307-1C15.28 5 6 14.281 6 25.73v4.308A2.962 2.962 0 008.962 33h22.076A2.961 2.961 0 0034 30.038V7.962A2.962 2.962 0 0031.038 5h-4.307z" fill="#F9F9F9"/></g><path d="M48.96 19.064l.432 2.856h.12l.48-2.88 3.216-9.84h3.456l-6.24 16.92h-2.352L41.784 9.2H45.6l3.36 9.864zM58.07 14h3.12v12h-3.12V14zm-.456-3.384c0-.464.168-.856.504-1.176.351-.336.831-.504 1.44-.504.608 0 1.096.168 1.464.504.384.32.575.712.575 1.176 0 .464-.191.856-.575 1.176-.368.304-.856.456-1.465.456-.608 0-1.088-.152-1.44-.456a1.561 1.561 0 01-.503-1.176zM64.25 9.2h3.12v5.76h.096a3.51 3.51 0 011.296-.912 4.442 4.442 0 011.752-.336c1.44 0 2.536.496 3.288 1.488.768.976 1.152 2.472 1.152 4.488 0 2.16-.536 3.8-1.608 4.92-1.056 1.12-2.512 1.68-4.368 1.68-1.024 0-1.96-.088-2.808-.264-.848-.16-1.488-.344-1.92-.552V9.2zm5.352 7.152c-.576 0-1.048.152-1.416.456-.352.288-.624.712-.816 1.272v5.232c.256.128.528.216.816.264.304.048.624.072.96.072.848 0 1.488-.304 1.92-.912.448-.624.672-1.608.672-2.952 0-2.288-.712-3.432-2.136-3.432zm14.139.576c-.496-.176-.944-.264-1.344-.264-.56 0-1.032.152-1.416.456a2.103 2.103 0 00-.744 1.128V26h-3.12V14h2.424l.36 1.584h.096c.272-.592.64-1.048 1.104-1.368.464-.32 1.008-.48 1.632-.48.416 0 .888.088 1.416.264l-.408 2.928zM84.956 20c0-2.032.496-3.592 1.488-4.68.992-1.104 2.384-1.656 4.176-1.656.96 0 1.792.152 2.496.456a4.606 4.606 0 011.752 1.296c.464.544.808 1.208 1.032 1.992.24.784.36 1.648.36 2.592 0 2.032-.496 3.6-1.488 4.704-.976 1.088-2.36 1.632-4.152 1.632-.96 0-1.792-.152-2.496-.456a4.946 4.946 0 01-1.776-1.272c-.464-.56-.816-1.232-1.056-2.016-.224-.784-.336-1.648-.336-2.592zm3.216 0c0 .528.048 1.016.144 1.464.096.448.24.84.432 1.176.192.336.44.6.744.792.32.176.696.264 1.128.264.816 0 1.424-.296 1.824-.888.4-.592.6-1.528.6-2.808 0-1.104-.184-1.992-.552-2.664-.368-.688-.992-1.032-1.872-1.032-.768 0-1.368.288-1.8.864-.432.576-.648 1.52-.648 2.832zm17.595 6v-6.816c0-.976-.144-1.68-.432-2.112-.272-.432-.744-.648-1.416-.648-.592 0-1.096.176-1.512.528-.4.336-.688.76-.864 1.272V26h-3.12V14h2.472l.36 1.584h.096c.368-.512.856-.96 1.464-1.344.608-.384 1.392-.576 2.352-.576.592 0 1.12.08 1.584.24.464.16.856.424 1.176.792.32.368.56.872.72 1.512.16.624.24 1.4.24 2.328V26h-3.12zm5.998-12h3.12v12h-3.12V14zm-.456-3.384c0-.464.168-.856.504-1.176.352-.336.832-.504 1.44-.504s1.096.168 1.464.504c.384.32.576.712.576 1.176 0 .464-.192.856-.576 1.176-.368.304-.856.456-1.464.456s-1.088-.152-1.44-.456a1.561 1.561 0 01-.504-1.176zM120.946 14v6.816c0 .976.112 1.68.336 2.112.24.432.696.648 1.368.648.592 0 1.08-.176 1.464-.528.4-.352.696-.784.888-1.296V14h3.12v8.352c0 .656.032 1.304.096 1.944.064.624.16 1.192.288 1.704h-2.352l-.552-1.776h-.096a4.485 4.485 0 01-1.536 1.512c-.656.4-1.432.6-2.328.6-.608 0-1.152-.08-1.632-.24-.48-.16-.88-.424-1.2-.792-.32-.368-.568-.864-.744-1.488-.16-.624-.24-1.408-.24-2.352V14h3.12zm16.73 12v-6.528c0-1.104-.104-1.888-.312-2.352-.208-.464-.64-.696-1.296-.696-.544 0-.984.152-1.32.456a2.725 2.725 0 00-.768 1.128V26h-3.12V14h2.424l.36 1.584h.096c.368-.512.832-.96 1.392-1.344.576-.384 1.312-.576 2.208-.576.768 0 1.392.16 1.872.48.496.304.88.824 1.152 1.56a4.36 4.36 0 011.416-1.488c.576-.368 1.272-.552 2.088-.552.672 0 1.24.08 1.704.24.48.16.864.44 1.152.84.304.384.528.904.672 1.56.144.656.216 1.488.216 2.496V26h-3.12v-6.744c0-.944-.104-1.648-.312-2.112-.192-.48-.632-.72-1.32-.72-.56 0-1.008.152-1.344.456-.32.304-.56.72-.72 1.248V26h-3.12z" fill="#F45D05"/><defs><clipPath id="clip0_11_309"><path fill="#fff" transform="translate(6 5)" d="M0 0h22v23H0z"/></clipPath></defs></svg>